<?xml version="1.0" encoding="UTF-8"?>
<!DOCTYPE svg PUBLIC "-//W3C//DTD SVG 1.1//EN" "http://www.w3.org/Graphics/SVG/1.1/DTD/svg11.dtd">
<svg version="1.1" width="141.83mm" height="145.42mm" viewBox="0 0 14183 14542" preserveAspectRatio="xMidYMid" fill-rule="evenodd" clip-path="url(#presentation_clip_path)" stroke-width="28.222" stroke-linejoin="round" xmlns="http://www.w3.org/2000/svg" xmlns:ooo="http://xml.openoffice.org/svg/export" xmlns:xlink="http://www.w3.org/1999/xlink" xml:space="preserve">
 <defs class="ClipPathGroup">
  <clipPath id="presentation_clip_path" clipPathUnits="userSpaceOnUse">
   <rect x="0" y="0" width="14183" height="14542"/>
  </clipPath>
 </defs>
 <defs class="TextShapeIndex">
  
 </defs>
 <defs class="EmbeddedBulletChars">
  <g id="bullet-char-template57356" transform="scale(0.00048828125,-0.00048828125)">
   <path d="M 580,1141 L 1163,571 580,0 -4,571 580,1141 Z"/>
  </g>
  <g id="bullet-char-template57354" transform="scale(0.00048828125,-0.00048828125)">
   <path d="M 8,1128 L 1137,1128 1137,0 8,0 8,1128 Z"/>
  </g>
  <g id="bullet-char-template10146" transform="scale(0.00048828125,-0.00048828125)">
   <path d="M 174,0 L 602,739 174,1481 1456,739 174,0 Z M 1358,739 L 309,1346 659,739 1358,739 Z"/>
  </g>
  <g id="bullet-char-template10132" transform="scale(0.00048828125,-0.00048828125)">
   <path d="M 2015,739 L 1276,0 717,0 1260,543 174,543 174,936 1260,936 717,1481 1274,1481 2015,739 Z"/>
  </g>
  <g id="bullet-char-template10007" transform="scale(0.00048828125,-0.00048828125)">
   <path d="M 0,-2 C -7,14 -16,27 -25,37 L 356,567 C 262,823 215,952 215,954 215,979 228,992 255,992 264,992 276,990 289,987 310,991 331,999 354,1012 L 381,999 492,748 772,1049 836,1024 860,1049 C 881,1039 901,1025 922,1006 886,937 835,863 770,784 769,783 710,716 594,584 L 774,223 C 774,196 753,168 711,139 L 727,119 C 717,90 699,76 672,76 641,76 570,178 457,381 L 164,-76 C 142,-110 111,-127 72,-127 30,-127 9,-110 8,-76 1,-67 -2,-52 -2,-32 -2,-23 -1,-13 0,-2 Z"/>
  </g>
  <g id="bullet-char-template10004" transform="scale(0.00048828125,-0.00048828125)">
   <path d="M 285,-33 C 182,-33 111,30 74,156 52,228 41,333 41,471 41,549 55,616 82,672 116,743 169,778 240,778 293,778 328,747 346,684 L 369,508 C 377,444 397,411 428,410 L 1163,1116 C 1174,1127 1196,1133 1229,1133 1271,1133 1292,1118 1292,1087 L 1292,965 C 1292,929 1282,901 1262,881 L 442,47 C 390,-6 338,-33 285,-33 Z"/>
  </g>
  <g id="bullet-char-template9679" transform="scale(0.00048828125,-0.00048828125)">
   <path d="M 813,0 C 632,0 489,54 383,161 276,268 223,411 223,592 223,773 276,916 383,1023 489,1130 632,1184 813,1184 992,1184 1136,1130 1245,1023 1353,916 1407,772 1407,592 1407,412 1353,268 1245,161 1136,54 992,0 813,0 Z"/>
  </g>
  <g id="bullet-char-template8226" transform="scale(0.00048828125,-0.00048828125)">
   <path d="M 346,457 C 273,457 209,483 155,535 101,586 74,649 74,723 74,796 101,859 155,911 209,963 273,989 346,989 419,989 480,963 531,910 582,859 608,796 608,723 608,648 583,586 532,535 482,483 420,457 346,457 Z"/>
  </g>
  <g id="bullet-char-template8211" transform="scale(0.00048828125,-0.00048828125)">
   <path d="M -4,459 L 1135,459 1135,606 -4,606 -4,459 Z"/>
  </g>
 </defs>
 <defs class="TextEmbeddedBitmaps"/>
 <g>
  <g id="id2" class="Master_Slide">
   <g id="bg-id2" class="Background"/>
   <g id="bo-id2" class="BackgroundObjects"/>
  </g>
 </g>
 <g class="SlideGroup">
  <g>
   <g id="id1" class="Slide" clip-path="url(#presentation_clip_path)">
    <g class="Page">
     <g class="Group">
      <g class="com.sun.star.drawing.EllipseShape">
       <g id="id3">
        <path fill="rgb(255,255,255)" stroke="none" d="M 7092,14322 C 5793,14322 4689,14026 3564,13377 2439,12727 1631,11919 981,10794 332,9669 36,8565 36,7266 36,5967 332,4863 981,3738 1631,2613 2439,1805 3564,1155 4689,506 5793,210 7092,210 8391,210 9495,506 10620,1155 11745,1805 12553,2613 13203,3738 13852,4863 14148,5967 14148,7266 14148,8565 13852,9669 13203,10794 12553,11919 11745,12727 10620,13377 9495,14026 8391,14322 7092,14322 L 7092,14322 Z"/>
        <path fill="none" stroke="rgb(192,192,192)" stroke-width="71" d="M 7092,14322 C 5793,14322 4689,14026 3564,13377 2439,12727 1631,11919 981,10794 332,9669 36,8565 36,7266 36,5967 332,4863 981,3738 1631,2613 2439,1805 3564,1155 4689,506 5793,210 7092,210 8391,210 9495,506 10620,1155 11745,1805 12553,2613 13203,3738 13852,4863 14148,5967 14148,7266 14148,8565 13852,9669 13203,10794 12553,11919 11745,12727 10620,13377 9495,14026 8391,14322 7092,14322 L 7092,14322 Z"/>
       </g>
      </g>
      <g class="com.sun.star.drawing.EllipseShape">
       <g id="id4">
        <path fill="rgb(255,255,255)" stroke="none" d="M 7092,7266 L 7091,4090 C 7676,4090 8173,4223 8679,4515 8781,4574 8863,4628 8958,4696 L 7092,7266 Z"/>
        <path fill="none" stroke="rgb(192,192,192)" stroke-width="71" d="M 7092,7266 L 7091,4090 C 7676,4090 8173,4223 8679,4515 8781,4574 8863,4628 8958,4696 L 7092,7266 Z"/>
       </g>
      </g>
      <g class="com.sun.star.drawing.TextShape">
       <g id="id5">
        <text class="TextShape"><tspan class="TextParagraph" font-family="Nimbus Sans L, sans-serif" font-size="776px" font-weight="400"><tspan class="TextPosition" x="7220" y="5509"><tspan fill="rgb(192,192,192)" stroke="none">36°</tspan></tspan></tspan></text>
       </g>
      </g>
      <g class="com.sun.star.drawing.PolyLineShape">
       <g id="id6">
        <path fill="none" stroke="rgb(192,192,192)" stroke-width="71" d="M 7093,7267 L 7093,212 7093,7267 11240,1559 7093,7267 13803,5087 7093,7267 13803,9448 7093,7267 11240,12975 7093,7267 7093,14323 7093,7267 2946,12975 7093,7267 383,9448 7093,7267 383,5087 7093,7267 2946,1559 7093,7267 Z"/>
       </g>
      </g>
      <g class="com.sun.star.drawing.EllipseShape">
       <g id="id7">
        <path fill="rgb(255,255,255)" stroke="none" d="M 7094,7445 C 7061,7445 7034,7438 7006,7421 6977,7405 6957,7385 6941,7357 6924,7328 6917,7301 6917,7268 6917,7235 6924,7208 6941,7180 6957,7151 6977,7131 7006,7115 7034,7098 7061,7091 7094,7091 7127,7091 7154,7098 7183,7115 7211,7131 7231,7151 7247,7180 7264,7208 7271,7235 7271,7268 7271,7301 7264,7328 7247,7357 7231,7385 7211,7405 7183,7421 7154,7438 7127,7445 7094,7445 L 7094,7445 Z"/>
        <path fill="none" stroke="rgb(192,192,192)" stroke-width="71" d="M 7094,7445 C 7061,7445 7034,7438 7006,7421 6977,7405 6957,7385 6941,7357 6924,7328 6917,7301 6917,7268 6917,7235 6924,7208 6941,7180 6957,7151 6977,7131 7006,7115 7034,7098 7061,7091 7094,7091 7127,7091 7154,7098 7183,7115 7211,7131 7231,7151 7247,7180 7264,7208 7271,7235 7271,7268 7271,7301 7264,7328 7247,7357 7231,7385 7211,7405 7183,7421 7154,7438 7127,7445 7094,7445 L 7094,7445 Z"/>
       </g>
      </g>
      <g class="com.sun.star.drawing.EllipseShape">
       <g id="id8">
        <path fill="rgb(255,255,255)" stroke="none" d="M 7092,210 L 8778,758 C 8738,882 8693,983 8627,1097 8464,1379 8261,1582 7979,1745 7696,1909 7418,1983 7092,1983 6766,1983 6488,1909 6206,1745 5923,1582 5720,1379 5557,1097 5491,983 5446,882 5406,758 L 7092,210 Z"/>
        <path fill="none" stroke="rgb(0,0,0)" stroke-width="71" d="M 7092,210 L 8778,758 C 8738,882 8693,983 8627,1097 8464,1379 8261,1582 7979,1745 7696,1909 7418,1983 7092,1983 6766,1983 6488,1909 6206,1745 5923,1582 5720,1379 5557,1097 5491,983 5446,882 5406,758 L 7092,210 Z"/>
       </g>
      </g>
      <g class="com.sun.star.drawing.TextShape">
       <g id="id9">
        <text class="TextShape"><tspan class="TextParagraph" font-family="Nimbus Sans L, sans-serif" font-size="776px" font-weight="400"><tspan class="TextPosition" x="6205" y="1547"><tspan fill="rgb(0,0,0)" stroke="none">144°</tspan></tspan></tspan></text>
       </g>
      </g>
      <g class="com.sun.star.drawing.PolyLineShape">
       <g id="id10">
        <path fill="none" stroke="rgb(0,0,0)" stroke-width="141" d="M 7095,215 L 11240,1563 13803,5091 13803,9451 11240,12979 7094,14326 2948,12978 385,9451 383,5091 2947,1563 7091,215"/>
       </g>
      </g>
      <g class="com.sun.star.drawing.EllipseShape">
       <g id="id11">
        <path fill="rgb(255,255,255)" stroke="none" d="M 6935,136 C 6950,107 6969,85 6996,67 7023,49 7050,40 7083,38 7115,37 7144,42 7173,57 7202,71 7223,90 7241,118 7259,145 7268,172 7270,205 7272,237 7266,265 7252,294 7237,323 7218,345 7191,363 7164,381 7137,390 7104,392 7072,394 7043,388 7014,373 6985,359 6964,340 6946,313 6928,285 6919,258 6917,226 6915,193 6921,165 6935,136 L 6935,136 Z"/>
        <path fill="none" stroke="rgb(0,0,0)" stroke-width="71" d="M 6935,136 C 6950,107 6969,85 6996,67 7023,49 7050,40 7083,38 7115,37 7144,42 7173,57 7202,71 7223,90 7241,118 7259,145 7268,172 7270,205 7272,237 7266,265 7252,294 7237,323 7218,345 7191,363 7164,381 7137,390 7104,392 7072,394 7043,388 7014,373 6985,359 6964,340 6946,313 6928,285 6919,258 6917,226 6915,193 6921,165 6935,136 L 6935,136 Z"/>
       </g>
      </g>
      <g class="com.sun.star.drawing.EllipseShape">
       <g id="id12">
        <path fill="rgb(255,255,255)" stroke="none" d="M 11073,1509 C 11083,1478 11098,1454 11123,1432 11147,1410 11172,1397 11204,1390 11236,1384 11265,1385 11296,1395 11327,1405 11351,1421 11373,1445 11394,1469 11407,1495 11414,1527 11421,1559 11419,1587 11409,1618 11399,1649 11384,1673 11359,1695 11335,1717 11310,1730 11278,1737 11246,1744 11217,1742 11186,1732 11155,1722 11131,1706 11109,1682 11088,1658 11075,1632 11068,1600 11061,1568 11063,1540 11073,1509 L 11073,1509 Z"/>
        <path fill="none" stroke="rgb(0,0,0)" stroke-width="71" d="M 11073,1509 C 11083,1478 11098,1454 11123,1432 11147,1410 11172,1397 11204,1390 11236,1384 11265,1385 11296,1395 11327,1405 11351,1421 11373,1445 11394,1469 11407,1495 11414,1527 11421,1559 11419,1587 11409,1618 11399,1649 11384,1673 11359,1695 11335,1717 11310,1730 11278,1737 11246,1744 11217,1742 11186,1732 11155,1722 11131,1706 11109,1682 11088,1658 11075,1632 11068,1600 11061,1568 11063,1540 11073,1509 L 11073,1509 Z"/>
       </g>
      </g>
      <g class="com.sun.star.drawing.EllipseShape">
       <g id="id13">
        <path fill="rgb(255,255,255)" stroke="none" d="M 13701,4947 C 13727,4927 13754,4917 13786,4914 13819,4910 13847,4915 13877,4928 13907,4941 13929,4959 13948,4986 13967,5012 13977,5039 13981,5071 13984,5104 13980,5132 13966,5162 13953,5192 13935,5214 13909,5233 13882,5252 13856,5262 13823,5266 13791,5269 13763,5265 13733,5252 13703,5238 13681,5220 13662,5194 13642,5168 13632,5141 13629,5108 13625,5076 13630,5048 13643,5018 13656,4988 13674,4966 13701,4947 L 13701,4947 Z"/>
        <path fill="none" stroke="rgb(0,0,0)" stroke-width="71" d="M 13701,4947 C 13727,4927 13754,4917 13786,4914 13819,4910 13847,4915 13877,4928 13907,4941 13929,4959 13948,4986 13967,5012 13977,5039 13981,5071 13984,5104 13980,5132 13966,5162 13953,5192 13935,5214 13909,5233 13882,5252 13856,5262 13823,5266 13791,5269 13763,5265 13733,5252 13703,5238 13681,5220 13662,5194 13642,5168 13632,5141 13629,5108 13625,5076 13630,5048 13643,5018 13656,4988 13674,4966 13701,4947 L 13701,4947 Z"/>
       </g>
      </g>
      <g class="com.sun.star.drawing.EllipseShape">
       <g id="id14">
        <path fill="rgb(255,255,255)" stroke="none" d="M 13804,9273 C 13837,9273 13864,9280 13893,9297 13921,9313 13941,9333 13957,9362 13974,9390 13981,9417 13981,9450 13981,9483 13974,9510 13957,9539 13941,9567 13921,9587 13893,9603 13864,9620 13837,9627 13804,9627 13771,9627 13744,9620 13716,9603 13687,9587 13667,9567 13651,9539 13634,9510 13627,9483 13627,9450 13627,9417 13634,9390 13651,9362 13667,9333 13687,9313 13716,9297 13744,9280 13771,9273 13804,9273 L 13804,9273 Z"/>
        <path fill="none" stroke="rgb(0,0,0)" stroke-width="71" d="M 13804,9273 C 13837,9273 13864,9280 13893,9297 13921,9313 13941,9333 13957,9362 13974,9390 13981,9417 13981,9450 13981,9483 13974,9510 13957,9539 13941,9567 13921,9587 13893,9603 13864,9620 13837,9627 13804,9627 13771,9627 13744,9620 13716,9603 13687,9587 13667,9567 13651,9539 13634,9510 13627,9483 13627,9450 13627,9417 13634,9390 13651,9362 13667,9333 13687,9313 13716,9297 13744,9280 13771,9273 13804,9273 L 13804,9273 Z"/>
       </g>
      </g>
      <g class="com.sun.star.drawing.EllipseShape">
       <g id="id15">
        <path fill="rgb(255,255,255)" stroke="none" d="M 11346,12836 C 11372,12855 11390,12877 11404,12907 11417,12937 11421,12965 11418,12997 11414,13030 11404,13056 11385,13083 11366,13109 11344,13127 11314,13140 11284,13154 11256,13158 11223,13155 11191,13151 11164,13141 11138,13122 11111,13103 11093,13081 11080,13051 11067,13021 11062,12993 11066,12960 11069,12928 11079,12901 11099,12875 11118,12848 11140,12830 11170,12817 11200,12804 11228,12799 11260,12803 11293,12806 11320,12816 11346,12836 L 11346,12836 Z"/>
        <path fill="none" stroke="rgb(0,0,0)" stroke-width="71" d="M 11346,12836 C 11372,12855 11390,12877 11404,12907 11417,12937 11421,12965 11418,12997 11414,13030 11404,13056 11385,13083 11366,13109 11344,13127 11314,13140 11284,13154 11256,13158 11223,13155 11191,13151 11164,13141 11138,13122 11111,13103 11093,13081 11080,13051 11067,13021 11062,12993 11066,12960 11069,12928 11079,12901 11099,12875 11118,12848 11140,12830 11170,12817 11200,12804 11228,12799 11260,12803 11293,12806 11320,12816 11346,12836 L 11346,12836 Z"/>
       </g>
      </g>
      <g class="com.sun.star.drawing.EllipseShape">
       <g id="id16">
        <path fill="rgb(255,255,255)" stroke="none" d="M 7264,14272 C 7274,14303 7276,14332 7269,14364 7262,14396 7249,14421 7227,14445 7205,14470 7181,14485 7150,14495 7119,14505 7091,14507 7059,14500 7027,14493 7001,14480 6977,14459 6953,14437 6937,14413 6927,14382 6917,14351 6916,14322 6923,14290 6929,14258 6942,14233 6964,14209 6986,14184 7010,14169 7041,14159 7072,14149 7101,14147 7133,14154 7164,14161 7190,14174 7214,14195 7238,14217 7254,14241 7264,14272 L 7264,14272 Z"/>
        <path fill="none" stroke="rgb(0,0,0)" stroke-width="71" d="M 7264,14272 C 7274,14303 7276,14332 7269,14364 7262,14396 7249,14421 7227,14445 7205,14470 7181,14485 7150,14495 7119,14505 7091,14507 7059,14500 7027,14493 7001,14480 6977,14459 6953,14437 6937,14413 6927,14382 6917,14351 6916,14322 6923,14290 6929,14258 6942,14233 6964,14209 6986,14184 7010,14169 7041,14159 7072,14149 7101,14147 7133,14154 7164,14161 7190,14174 7214,14195 7238,14217 7254,14241 7264,14272 L 7264,14272 Z"/>
       </g>
      </g>
      <g class="com.sun.star.drawing.EllipseShape">
       <g id="id17">
        <path fill="rgb(255,255,255)" stroke="none" d="M 3117,13033 C 3107,13064 3092,13088 3067,13110 3043,13132 3018,13145 2986,13152 2954,13158 2925,13157 2894,13147 2863,13137 2839,13121 2817,13097 2796,13073 2783,13047 2776,13015 2769,12983 2771,12955 2781,12924 2791,12893 2806,12869 2831,12847 2855,12825 2880,12812 2912,12805 2944,12798 2973,12800 3004,12810 3035,12820 3059,12836 3081,12860 3102,12884 3115,12910 3122,12942 3129,12974 3127,13002 3117,13033 L 3117,13033 Z"/>
        <path fill="none" stroke="rgb(0,0,0)" stroke-width="71" d="M 3117,13033 C 3107,13064 3092,13088 3067,13110 3043,13132 3018,13145 2986,13152 2954,13158 2925,13157 2894,13147 2863,13137 2839,13121 2817,13097 2796,13073 2783,13047 2776,13015 2769,12983 2771,12955 2781,12924 2791,12893 2806,12869 2831,12847 2855,12825 2880,12812 2912,12805 2944,12798 2973,12800 3004,12810 3035,12820 3059,12836 3081,12860 3102,12884 3115,12910 3122,12942 3129,12974 3127,13002 3117,13033 L 3117,13033 Z"/>
       </g>
      </g>
      <g class="com.sun.star.drawing.EllipseShape">
       <g id="id18">
        <path fill="rgb(255,255,255)" stroke="none" d="M 489,9594 C 463,9614 436,9624 404,9627 371,9631 343,9626 313,9613 283,9600 261,9582 242,9555 223,9529 213,9502 209,9470 206,9437 210,9409 224,9379 237,9349 255,9327 281,9308 308,9289 334,9279 367,9275 399,9272 427,9276 457,9290 487,9303 509,9321 528,9347 548,9374 558,9400 561,9433 565,9465 560,9493 547,9523 534,9553 516,9575 489,9594 L 489,9594 Z"/>
        <path fill="none" stroke="rgb(0,0,0)" stroke-width="71" d="M 489,9594 C 463,9614 436,9624 404,9627 371,9631 343,9626 313,9613 283,9600 261,9582 242,9555 223,9529 213,9502 209,9470 206,9437 210,9409 224,9379 237,9349 255,9327 281,9308 308,9289 334,9279 367,9275 399,9272 427,9276 457,9290 487,9303 509,9321 528,9347 548,9374 558,9400 561,9433 565,9465 560,9493 547,9523 534,9553 516,9575 489,9594 L 489,9594 Z"/>
       </g>
      </g>
      <g class="com.sun.star.drawing.EllipseShape">
       <g id="id19">
        <path fill="rgb(255,255,255)" stroke="none" d="M 386,5268 C 353,5268 326,5261 298,5244 269,5228 249,5208 233,5180 216,5151 209,5124 209,5091 209,5058 216,5031 233,5003 249,4974 269,4954 297,4938 326,4921 353,4914 386,4914 419,4914 446,4921 474,4938 503,4954 523,4974 539,5003 556,5031 563,5058 563,5091 563,5124 556,5151 539,5180 523,5208 503,5228 475,5244 446,5261 419,5268 386,5268 L 386,5268 Z"/>
        <path fill="none" stroke="rgb(0,0,0)" stroke-width="71" d="M 386,5268 C 353,5268 326,5261 298,5244 269,5228 249,5208 233,5180 216,5151 209,5124 209,5091 209,5058 216,5031 233,5003 249,4974 269,4954 297,4938 326,4921 353,4914 386,4914 419,4914 446,4921 474,4938 503,4954 523,4974 539,5003 556,5031 563,5058 563,5091 563,5124 556,5151 539,5180 523,5208 503,5228 475,5244 446,5261 419,5268 386,5268 L 386,5268 Z"/>
       </g>
      </g>
      <g class="com.sun.star.drawing.EllipseShape">
       <g id="id20">
        <path fill="rgb(255,255,255)" stroke="none" d="M 2844,1706 C 2818,1687 2800,1665 2786,1635 2773,1605 2769,1577 2772,1545 2775,1512 2786,1486 2805,1459 2824,1433 2846,1415 2876,1402 2906,1388 2934,1384 2967,1387 2999,1391 3026,1401 3052,1420 3079,1439 3097,1462 3110,1491 3123,1521 3128,1549 3124,1582 3121,1614 3110,1641 3091,1667 3072,1694 3050,1712 3020,1725 2990,1738 2962,1743 2930,1739 2897,1736 2870,1726 2844,1706 L 2844,1706 Z"/>
        <path fill="none" stroke="rgb(0,0,0)" stroke-width="71" d="M 2844,1706 C 2818,1687 2800,1665 2786,1635 2773,1605 2769,1577 2772,1545 2775,1512 2786,1486 2805,1459 2824,1433 2846,1415 2876,1402 2906,1388 2934,1384 2967,1387 2999,1391 3026,1401 3052,1420 3079,1439 3097,1462 3110,1491 3123,1521 3128,1549 3124,1582 3121,1614 3110,1641 3091,1667 3072,1694 3050,1712 3020,1725 2990,1738 2962,1743 2930,1739 2897,1736 2870,1726 2844,1706 L 2844,1706 Z"/>
       </g>
      </g>
     </g>
    </g>
   </g>
  </g>
 </g>
</svg>