<?xml version="1.0" encoding="UTF-8"?>
<!DOCTYPE svg PUBLIC "-//W3C//DTD SVG 1.1//EN" "http://www.w3.org/Graphics/SVG/1.1/DTD/svg11.dtd">
<svg version="1.1" width="145.42mm" height="145.4mm" viewBox="0 0 14542 14540" preserveAspectRatio="xMidYMid" fill-rule="evenodd" clip-path="url(#presentation_clip_path)" stroke-width="28.222" stroke-linejoin="round" xmlns="http://www.w3.org/2000/svg" xmlns:ooo="http://xml.openoffice.org/svg/export" xmlns:xlink="http://www.w3.org/1999/xlink" xml:space="preserve">
 <defs class="ClipPathGroup">
  <clipPath id="presentation_clip_path" clipPathUnits="userSpaceOnUse">
   <rect x="0" y="0" width="14542" height="14540"/>
  </clipPath>
 </defs>
 <defs class="TextShapeIndex">
  
 </defs>
 <defs class="EmbeddedBulletChars">
  <g id="bullet-char-template57356" transform="scale(0.00048828125,-0.00048828125)">
   <path d="M 580,1141 L 1163,571 580,0 -4,571 580,1141 Z"/>
  </g>
  <g id="bullet-char-template57354" transform="scale(0.00048828125,-0.00048828125)">
   <path d="M 8,1128 L 1137,1128 1137,0 8,0 8,1128 Z"/>
  </g>
  <g id="bullet-char-template10146" transform="scale(0.00048828125,-0.00048828125)">
   <path d="M 174,0 L 602,739 174,1481 1456,739 174,0 Z M 1358,739 L 309,1346 659,739 1358,739 Z"/>
  </g>
  <g id="bullet-char-template10132" transform="scale(0.00048828125,-0.00048828125)">
   <path d="M 2015,739 L 1276,0 717,0 1260,543 174,543 174,936 1260,936 717,1481 1274,1481 2015,739 Z"/>
  </g>
  <g id="bullet-char-template10007" transform="scale(0.00048828125,-0.00048828125)">
   <path d="M 0,-2 C -7,14 -16,27 -25,37 L 356,567 C 262,823 215,952 215,954 215,979 228,992 255,992 264,992 276,990 289,987 310,991 331,999 354,1012 L 381,999 492,748 772,1049 836,1024 860,1049 C 881,1039 901,1025 922,1006 886,937 835,863 770,784 769,783 710,716 594,584 L 774,223 C 774,196 753,168 711,139 L 727,119 C 717,90 699,76 672,76 641,76 570,178 457,381 L 164,-76 C 142,-110 111,-127 72,-127 30,-127 9,-110 8,-76 1,-67 -2,-52 -2,-32 -2,-23 -1,-13 0,-2 Z"/>
  </g>
  <g id="bullet-char-template10004" transform="scale(0.00048828125,-0.00048828125)">
   <path d="M 285,-33 C 182,-33 111,30 74,156 52,228 41,333 41,471 41,549 55,616 82,672 116,743 169,778 240,778 293,778 328,747 346,684 L 369,508 C 377,444 397,411 428,410 L 1163,1116 C 1174,1127 1196,1133 1229,1133 1271,1133 1292,1118 1292,1087 L 1292,965 C 1292,929 1282,901 1262,881 L 442,47 C 390,-6 338,-33 285,-33 Z"/>
  </g>
  <g id="bullet-char-template9679" transform="scale(0.00048828125,-0.00048828125)">
   <path d="M 813,0 C 632,0 489,54 383,161 276,268 223,411 223,592 223,773 276,916 383,1023 489,1130 632,1184 813,1184 992,1184 1136,1130 1245,1023 1353,916 1407,772 1407,592 1407,412 1353,268 1245,161 1136,54 992,0 813,0 Z"/>
  </g>
  <g id="bullet-char-template8226" transform="scale(0.00048828125,-0.00048828125)">
   <path d="M 346,457 C 273,457 209,483 155,535 101,586 74,649 74,723 74,796 101,859 155,911 209,963 273,989 346,989 419,989 480,963 531,910 582,859 608,796 608,723 608,648 583,586 532,535 482,483 420,457 346,457 Z"/>
  </g>
  <g id="bullet-char-template8211" transform="scale(0.00048828125,-0.00048828125)">
   <path d="M -4,459 L 1135,459 1135,606 -4,606 -4,459 Z"/>
  </g>
 </defs>
 <defs class="TextEmbeddedBitmaps"/>
 <g>
  <g id="id2" class="Master_Slide">
   <g id="bg-id2" class="Background"/>
   <g id="bo-id2" class="BackgroundObjects"/>
  </g>
 </g>
 <g class="SlideGroup">
  <g>
   <g id="id1" class="Slide" clip-path="url(#presentation_clip_path)">
    <g class="Page">
     <g class="Group">
      <g class="com.sun.star.drawing.EllipseShape">
       <g id="id3">
        <path fill="rgb(255,255,255)" stroke="none" d="M 7268,14324 C 5969,14324 4865,14028 3740,13379 2615,12729 1807,11921 1157,10796 508,9671 212,8567 212,7268 212,5969 508,4865 1157,3740 1807,2615 2615,1807 3740,1157 4865,508 5969,212 7268,212 8567,212 9671,508 10796,1157 11921,1807 12729,2615 13379,3740 14028,4865 14324,5969 14324,7268 14324,8567 14028,9671 13379,10796 12729,11921 11921,12729 10796,13379 9671,14028 8567,14324 7268,14324 L 7268,14324 Z"/>
        <path fill="none" stroke="rgb(192,192,192)" stroke-width="71" d="M 7268,14324 C 5969,14324 4865,14028 3740,13379 2615,12729 1807,11921 1157,10796 508,9671 212,8567 212,7268 212,5969 508,4865 1157,3740 1807,2615 2615,1807 3740,1157 4865,508 5969,212 7268,212 8567,212 9671,508 10796,1157 11921,1807 12729,2615 13379,3740 14028,4865 14324,5969 14324,7268 14324,8567 14028,9671 13379,10796 12729,11921 11921,12729 10796,13379 9671,14028 8567,14324 7268,14324 L 7268,14324 Z"/>
       </g>
      </g>
      <g class="com.sun.star.drawing.EllipseShape">
       <g id="id4">
        <path fill="rgb(255,255,255)" stroke="none" d="M 7268,7268 L 7268,4445 C 7787,4445 8229,4563 8679,4823 8904,4953 9080,5088 9263,5272 L 7268,7268 Z"/>
        <path fill="none" stroke="rgb(192,192,192)" stroke-width="71" d="M 7268,7268 L 7268,4445 C 7787,4445 8229,4563 8679,4823 8904,4953 9080,5088 9263,5272 L 7268,7268 Z"/>
       </g>
      </g>
      <g class="com.sun.star.drawing.TextShape">
       <g id="id5">
        <text class="TextShape"><tspan class="TextParagraph" font-family="Nimbus Sans L, sans-serif" font-size="776px" font-weight="400"><tspan class="TextPosition" x="7414" y="5951"><tspan fill="rgb(192,192,192)" stroke="none">45°</tspan></tspan></tspan></text>
       </g>
      </g>
      <g class="com.sun.star.drawing.PolyLineShape">
       <g id="id6">
        <path fill="none" stroke="rgb(192,192,192)" stroke-width="71" d="M 7270,7269 L 7270,214 7270,7269 12258,2281 7270,7269 14325,7269 7270,7269 12258,12258 7270,7269 7270,14325 7270,7269 2281,12258 7270,7269 214,7269 7270,7269 2281,2281 7270,7269 Z"/>
       </g>
      </g>
      <g class="com.sun.star.drawing.EllipseShape">
       <g id="id7">
        <path fill="rgb(255,255,255)" stroke="none" d="M 7270,7445 C 7237,7445 7210,7438 7182,7421 7153,7405 7133,7385 7117,7357 7100,7328 7093,7301 7093,7268 7093,7235 7100,7208 7117,7180 7133,7151 7153,7131 7182,7115 7210,7098 7237,7091 7270,7091 7303,7091 7330,7098 7359,7115 7387,7131 7407,7151 7423,7180 7440,7208 7447,7235 7447,7268 7447,7301 7440,7328 7423,7357 7407,7385 7387,7405 7359,7421 7330,7438 7303,7445 7270,7445 L 7270,7445 Z"/>
        <path fill="none" stroke="rgb(192,192,192)" stroke-width="71" d="M 7270,7445 C 7237,7445 7210,7438 7182,7421 7153,7405 7133,7385 7117,7357 7100,7328 7093,7301 7093,7268 7093,7235 7100,7208 7117,7180 7133,7151 7153,7131 7182,7115 7210,7098 7237,7091 7270,7091 7303,7091 7330,7098 7359,7115 7387,7131 7407,7151 7423,7180 7440,7208 7447,7235 7447,7268 7447,7301 7440,7328 7423,7357 7407,7385 7387,7405 7359,7421 7330,7438 7303,7445 7270,7445 L 7270,7445 Z"/>
       </g>
      </g>
      <g class="com.sun.star.drawing.EllipseShape">
       <g id="id8">
        <path fill="rgb(255,255,255)" stroke="none" d="M 7268,212 L 8949,908 C 8916,985 8885,1049 8843,1122 8676,1412 8468,1620 8178,1787 7887,1955 7603,2031 7268,2031 6933,2031 6649,1955 6359,1787 6068,1620 5860,1412 5693,1122 5651,1049 5620,985 5587,908 L 7268,212 Z"/>
        <path fill="none" stroke="rgb(0,0,0)" stroke-width="71" d="M 7268,212 L 8949,908 C 8916,985 8885,1049 8843,1122 8676,1412 8468,1620 8178,1787 7887,1955 7603,2031 7268,2031 6933,2031 6649,1955 6359,1787 6068,1620 5860,1412 5693,1122 5651,1049 5620,985 5587,908 L 7268,212 Z"/>
       </g>
      </g>
      <g class="com.sun.star.drawing.TextShape">
       <g id="id9">
        <text class="TextShape"><tspan class="TextParagraph" font-family="Nimbus Sans L, sans-serif" font-size="776px" font-weight="400"><tspan class="TextPosition" x="6381" y="1609"><tspan fill="rgb(0,0,0)" stroke="none">135°</tspan></tspan></tspan></text>
       </g>
      </g>
      <g class="com.sun.star.drawing.PolyLineShape">
       <g id="id10">
        <path fill="none" stroke="rgb(0,0,0)" stroke-width="141" d="M 7271,215 L 12258,2279 14324,7267 12257,12257 7269,14323 2280,12256 212,7267 2279,2279 7269,216"/>
       </g>
      </g>
      <g class="com.sun.star.drawing.EllipseShape">
       <g id="id11">
        <path fill="rgb(255,255,255)" stroke="none" d="M 7145,90 C 7168,67 7192,52 7224,44 7255,36 7284,36 7315,44 7347,52 7372,67 7395,90 7418,113 7432,138 7441,169 7449,201 7449,229 7441,261 7432,292 7418,317 7395,340 7372,363 7347,378 7315,386 7284,394 7255,394 7224,386 7192,378 7168,363 7145,340 7121,317 7107,292 7099,261 7090,229 7090,201 7099,169 7107,138 7121,113 7145,90 L 7145,90 Z"/>
        <path fill="none" stroke="rgb(0,0,0)" stroke-width="71" d="M 7145,90 C 7168,67 7192,52 7224,44 7255,36 7284,36 7315,44 7347,52 7372,67 7395,90 7418,113 7432,138 7441,169 7449,201 7449,229 7441,261 7432,292 7418,317 7395,340 7372,363 7347,378 7315,386 7284,394 7255,394 7224,386 7192,378 7168,363 7145,340 7121,317 7107,292 7099,261 7090,229 7090,201 7099,169 7107,138 7121,113 7145,90 L 7145,90 Z"/>
       </g>
      </g>
      <g class="com.sun.star.drawing.EllipseShape">
       <g id="id12">
        <path fill="rgb(255,255,255)" stroke="none" d="M 12095,2213 C 12108,2183 12125,2160 12151,2140 12177,2121 12203,2110 12236,2105 12268,2101 12296,2105 12326,2117 12357,2130 12379,2147 12399,2173 12419,2199 12430,2225 12434,2258 12438,2290 12435,2318 12422,2349 12410,2379 12392,2401 12367,2421 12341,2441 12314,2452 12282,2456 12250,2461 12221,2457 12191,2444 12161,2432 12138,2414 12118,2389 12099,2363 12088,2336 12083,2304 12079,2272 12083,2243 12095,2213 L 12095,2213 Z"/>
        <path fill="none" stroke="rgb(0,0,0)" stroke-width="71" d="M 12095,2213 C 12108,2183 12125,2160 12151,2140 12177,2121 12203,2110 12236,2105 12268,2101 12296,2105 12326,2117 12357,2130 12379,2147 12399,2173 12419,2199 12430,2225 12434,2258 12438,2290 12435,2318 12422,2349 12410,2379 12392,2401 12367,2421 12341,2441 12314,2452 12282,2456 12250,2461 12221,2457 12191,2444 12161,2432 12138,2414 12118,2389 12099,2363 12088,2336 12083,2304 12079,2272 12083,2243 12095,2213 L 12095,2213 Z"/>
       </g>
      </g>
      <g class="com.sun.star.drawing.EllipseShape">
       <g id="id13">
        <path fill="rgb(255,255,255)" stroke="none" d="M 14259,7105 C 14289,7092 14317,7089 14350,7093 14382,7097 14409,7108 14434,7128 14460,7148 14478,7170 14490,7200 14503,7231 14506,7259 14502,7291 14498,7324 14487,7350 14467,7376 14447,7402 14425,7419 14394,7432 14364,7444 14336,7448 14304,7444 14271,7440 14245,7429 14219,7409 14193,7389 14176,7366 14163,7336 14151,7306 14147,7278 14151,7245 14155,7213 14166,7186 14186,7161 14206,7135 14229,7117 14259,7105 L 14259,7105 Z"/>
        <path fill="none" stroke="rgb(0,0,0)" stroke-width="71" d="M 14259,7105 C 14289,7092 14317,7089 14350,7093 14382,7097 14409,7108 14434,7128 14460,7148 14478,7170 14490,7200 14503,7231 14506,7259 14502,7291 14498,7324 14487,7350 14467,7376 14447,7402 14425,7419 14394,7432 14364,7444 14336,7448 14304,7444 14271,7440 14245,7429 14219,7409 14193,7389 14176,7366 14163,7336 14151,7306 14147,7278 14151,7245 14155,7213 14166,7186 14186,7161 14206,7135 14229,7117 14259,7105 L 14259,7105 Z"/>
       </g>
      </g>
      <g class="com.sun.star.drawing.EllipseShape">
       <g id="id14">
        <path fill="rgb(255,255,255)" stroke="none" d="M 12326,12093 C 12356,12106 12379,12123 12399,12149 12418,12175 12429,12201 12434,12234 12438,12266 12434,12294 12422,12324 12409,12355 12392,12377 12366,12397 12340,12417 12314,12428 12281,12432 12249,12436 12221,12433 12190,12420 12160,12408 12138,12390 12118,12364 12098,12339 12087,12312 12083,12280 12078,12248 12082,12219 12095,12189 12107,12159 12125,12136 12150,12116 12176,12096 12203,12086 12235,12081 12267,12077 12296,12081 12326,12093 L 12326,12093 Z"/>
        <path fill="none" stroke="rgb(0,0,0)" stroke-width="71" d="M 12326,12093 C 12356,12106 12379,12123 12399,12149 12418,12175 12429,12201 12434,12234 12438,12266 12434,12294 12422,12324 12409,12355 12392,12377 12366,12397 12340,12417 12314,12428 12281,12432 12249,12436 12221,12433 12190,12420 12160,12408 12138,12390 12118,12364 12098,12339 12087,12312 12083,12280 12078,12248 12082,12219 12095,12189 12107,12159 12125,12136 12150,12116 12176,12096 12203,12086 12235,12081 12267,12077 12296,12081 12326,12093 L 12326,12093 Z"/>
       </g>
      </g>
      <g class="com.sun.star.drawing.EllipseShape">
       <g id="id15">
        <path fill="rgb(255,255,255)" stroke="none" d="M 7435,14258 C 7448,14288 7451,14316 7447,14349 7443,14381 7432,14408 7412,14433 7392,14459 7370,14477 7340,14489 7309,14502 7281,14505 7249,14501 7216,14497 7190,14486 7164,14466 7138,14446 7121,14424 7108,14393 7096,14363 7092,14335 7096,14303 7100,14270 7111,14244 7131,14218 7151,14192 7174,14175 7204,14162 7234,14150 7262,14146 7295,14150 7327,14154 7354,14165 7379,14185 7405,14205 7423,14228 7435,14258 L 7435,14258 Z"/>
        <path fill="none" stroke="rgb(0,0,0)" stroke-width="71" d="M 7435,14258 C 7448,14288 7451,14316 7447,14349 7443,14381 7432,14408 7412,14433 7392,14459 7370,14477 7340,14489 7309,14502 7281,14505 7249,14501 7216,14497 7190,14486 7164,14466 7138,14446 7121,14424 7108,14393 7096,14363 7092,14335 7096,14303 7100,14270 7111,14244 7131,14218 7151,14192 7174,14175 7204,14162 7234,14150 7262,14146 7295,14150 7327,14154 7354,14165 7379,14185 7405,14205 7423,14228 7435,14258 L 7435,14258 Z"/>
       </g>
      </g>
      <g class="com.sun.star.drawing.EllipseShape">
       <g id="id16">
        <path fill="rgb(255,255,255)" stroke="none" d="M 2445,12324 C 2432,12354 2415,12377 2389,12397 2363,12416 2337,12427 2304,12432 2272,12436 2244,12432 2214,12420 2183,12407 2161,12390 2141,12364 2121,12338 2110,12312 2106,12279 2102,12247 2105,12219 2118,12188 2130,12158 2148,12136 2174,12116 2199,12096 2226,12085 2258,12081 2290,12076 2319,12080 2349,12093 2379,12105 2402,12123 2422,12148 2442,12174 2452,12201 2457,12233 2461,12265 2457,12294 2445,12324 L 2445,12324 Z"/>
        <path fill="none" stroke="rgb(0,0,0)" stroke-width="71" d="M 2445,12324 C 2432,12354 2415,12377 2389,12397 2363,12416 2337,12427 2304,12432 2272,12436 2244,12432 2214,12420 2183,12407 2161,12390 2141,12364 2121,12338 2110,12312 2106,12279 2102,12247 2105,12219 2118,12188 2130,12158 2148,12136 2174,12116 2199,12096 2226,12085 2258,12081 2290,12076 2319,12080 2349,12093 2379,12105 2402,12123 2422,12148 2442,12174 2452,12201 2457,12233 2461,12265 2457,12294 2445,12324 L 2445,12324 Z"/>
       </g>
      </g>
      <g class="com.sun.star.drawing.EllipseShape">
       <g id="id17">
        <path fill="rgb(255,255,255)" stroke="none" d="M 282,7433 C 252,7446 224,7449 191,7445 159,7441 132,7430 107,7410 81,7390 63,7368 51,7338 38,7307 35,7279 39,7247 43,7214 54,7188 74,7162 94,7136 116,7119 147,7106 177,7094 205,7090 237,7094 270,7099 296,7109 322,7129 348,7149 365,7172 378,7202 390,7232 394,7261 390,7293 386,7325 375,7352 355,7377 335,7403 312,7421 282,7433 L 282,7433 Z"/>
        <path fill="none" stroke="rgb(0,0,0)" stroke-width="71" d="M 282,7433 C 252,7446 224,7449 191,7445 159,7441 132,7430 107,7410 81,7390 63,7368 51,7338 38,7307 35,7279 39,7247 43,7214 54,7188 74,7162 94,7136 116,7119 147,7106 177,7094 205,7090 237,7094 270,7099 296,7109 322,7129 348,7149 365,7172 378,7202 390,7232 394,7261 390,7293 386,7325 375,7352 355,7377 335,7403 312,7421 282,7433 L 282,7433 Z"/>
       </g>
      </g>
      <g class="com.sun.star.drawing.EllipseShape">
       <g id="id18">
        <path fill="rgb(255,255,255)" stroke="none" d="M 2214,2443 C 2184,2430 2161,2413 2141,2387 2122,2361 2111,2335 2106,2302 2102,2270 2106,2242 2118,2212 2131,2181 2148,2159 2174,2139 2200,2119 2226,2108 2259,2104 2291,2100 2319,2103 2350,2116 2380,2128 2402,2146 2422,2172 2442,2197 2453,2224 2457,2256 2462,2288 2458,2317 2445,2347 2433,2377 2415,2400 2390,2420 2364,2440 2337,2450 2305,2455 2273,2459 2244,2455 2214,2443 L 2214,2443 Z"/>
        <path fill="none" stroke="rgb(0,0,0)" stroke-width="71" d="M 2214,2443 C 2184,2430 2161,2413 2141,2387 2122,2361 2111,2335 2106,2302 2102,2270 2106,2242 2118,2212 2131,2181 2148,2159 2174,2139 2200,2119 2226,2108 2259,2104 2291,2100 2319,2103 2350,2116 2380,2128 2402,2146 2422,2172 2442,2197 2453,2224 2457,2256 2462,2288 2458,2317 2445,2347 2433,2377 2415,2400 2390,2420 2364,2440 2337,2450 2305,2455 2273,2459 2244,2455 2214,2443 L 2214,2443 Z"/>
       </g>
      </g>
     </g>
    </g>
   </g>
  </g>
 </g>
</svg>