<?xml version="1.0" encoding="UTF-8"?>
<!DOCTYPE svg PUBLIC "-//W3C//DTD SVG 1.1//EN" "http://www.w3.org/Graphics/SVG/1.1/DTD/svg11.dtd">
<svg version="1.1" width="141.83mm" height="143.56mm" viewBox="0 0 14183 14356" preserveAspectRatio="xMidYMid" fill-rule="evenodd" clip-path="url(#presentation_clip_path)" stroke-width="28.222" stroke-linejoin="round" xmlns="http://www.w3.org/2000/svg" xmlns:ooo="http://xml.openoffice.org/svg/export" xmlns:xlink="http://www.w3.org/1999/xlink" xml:space="preserve">
 <defs class="ClipPathGroup">
  <clipPath id="presentation_clip_path" clipPathUnits="userSpaceOnUse">
   <rect x="0" y="0" width="14183" height="14356"/>
  </clipPath>
 </defs>
 <defs class="TextShapeIndex">
  
 </defs>
 <defs class="EmbeddedBulletChars">
  <g id="bullet-char-template57356" transform="scale(0.00048828125,-0.00048828125)">
   <path d="M 580,1141 L 1163,571 580,0 -4,571 580,1141 Z"/>
  </g>
  <g id="bullet-char-template57354" transform="scale(0.00048828125,-0.00048828125)">
   <path d="M 8,1128 L 1137,1128 1137,0 8,0 8,1128 Z"/>
  </g>
  <g id="bullet-char-template10146" transform="scale(0.00048828125,-0.00048828125)">
   <path d="M 174,0 L 602,739 174,1481 1456,739 174,0 Z M 1358,739 L 309,1346 659,739 1358,739 Z"/>
  </g>
  <g id="bullet-char-template10132" transform="scale(0.00048828125,-0.00048828125)">
   <path d="M 2015,739 L 1276,0 717,0 1260,543 174,543 174,936 1260,936 717,1481 1274,1481 2015,739 Z"/>
  </g>
  <g id="bullet-char-template10007" transform="scale(0.00048828125,-0.00048828125)">
   <path d="M 0,-2 C -7,14 -16,27 -25,37 L 356,567 C 262,823 215,952 215,954 215,979 228,992 255,992 264,992 276,990 289,987 310,991 331,999 354,1012 L 381,999 492,748 772,1049 836,1024 860,1049 C 881,1039 901,1025 922,1006 886,937 835,863 770,784 769,783 710,716 594,584 L 774,223 C 774,196 753,168 711,139 L 727,119 C 717,90 699,76 672,76 641,76 570,178 457,381 L 164,-76 C 142,-110 111,-127 72,-127 30,-127 9,-110 8,-76 1,-67 -2,-52 -2,-32 -2,-23 -1,-13 0,-2 Z"/>
  </g>
  <g id="bullet-char-template10004" transform="scale(0.00048828125,-0.00048828125)">
   <path d="M 285,-33 C 182,-33 111,30 74,156 52,228 41,333 41,471 41,549 55,616 82,672 116,743 169,778 240,778 293,778 328,747 346,684 L 369,508 C 377,444 397,411 428,410 L 1163,1116 C 1174,1127 1196,1133 1229,1133 1271,1133 1292,1118 1292,1087 L 1292,965 C 1292,929 1282,901 1262,881 L 442,47 C 390,-6 338,-33 285,-33 Z"/>
  </g>
  <g id="bullet-char-template9679" transform="scale(0.00048828125,-0.00048828125)">
   <path d="M 813,0 C 632,0 489,54 383,161 276,268 223,411 223,592 223,773 276,916 383,1023 489,1130 632,1184 813,1184 992,1184 1136,1130 1245,1023 1353,916 1407,772 1407,592 1407,412 1353,268 1245,161 1136,54 992,0 813,0 Z"/>
  </g>
  <g id="bullet-char-template8226" transform="scale(0.00048828125,-0.00048828125)">
   <path d="M 346,457 C 273,457 209,483 155,535 101,586 74,649 74,723 74,796 101,859 155,911 209,963 273,989 346,989 419,989 480,963 531,910 582,859 608,796 608,723 608,648 583,586 532,535 482,483 420,457 346,457 Z"/>
  </g>
  <g id="bullet-char-template8211" transform="scale(0.00048828125,-0.00048828125)">
   <path d="M -4,459 L 1135,459 1135,606 -4,606 -4,459 Z"/>
  </g>
 </defs>
 <defs class="TextEmbeddedBitmaps"/>
 <g>
  <g id="id2" class="Master_Slide">
   <g id="bg-id2" class="Background"/>
   <g id="bo-id2" class="BackgroundObjects"/>
  </g>
 </g>
 <g class="SlideGroup">
  <g>
   <g id="id1" class="Slide" clip-path="url(#presentation_clip_path)">
    <g class="Page">
     <g class="Group">
      <g class="com.sun.star.drawing.EllipseShape">
       <g id="id3">
        <path fill="rgb(255,255,255)" stroke="none" d="M 7092,14321 C 5793,14321 4689,14025 3564,13376 2439,12726 1631,11918 981,10793 332,9668 36,8564 36,7265 36,5966 332,4862 981,3737 1631,2612 2439,1804 3564,1154 4689,505 5793,209 7092,209 8391,209 9495,505 10620,1154 11745,1804 12553,2612 13203,3737 13852,4862 14148,5966 14148,7265 14148,8564 13852,9668 13203,10793 12553,11918 11745,12726 10620,13376 9495,14025 8391,14321 7092,14321 L 7092,14321 Z"/>
        <path fill="none" stroke="rgb(192,192,192)" stroke-width="71" d="M 7092,14321 C 5793,14321 4689,14025 3564,13376 2439,12726 1631,11918 981,10793 332,9668 36,8564 36,7265 36,5966 332,4862 981,3737 1631,2612 2439,1804 3564,1154 4689,505 5793,209 7092,209 8391,209 9495,505 10620,1154 11745,1804 12553,2612 13203,3737 13852,4862 14148,5966 14148,7265 14148,8564 13852,9668 13203,10793 12553,11918 11745,12726 10620,13376 9495,14025 8391,14321 7092,14321 L 7092,14321 Z"/>
       </g>
      </g>
      <g class="com.sun.star.drawing.EllipseShape">
       <g id="id4">
        <path fill="rgb(255,255,255)" stroke="none" d="M 7092,7265 L 7092,5324 C 7449,5324 7752,5405 8062,5584 8371,5763 8593,5985 8772,6294 8951,6604 9032,6907 9032,7265 9032,7622 8951,7925 8772,8235 L 7092,7265 Z"/>
        <path fill="none" stroke="rgb(192,192,192)" stroke-width="71" d="M 7092,7265 L 7092,5324 C 7449,5324 7752,5405 8062,5584 8371,5763 8593,5985 8772,6294 8951,6604 9032,6907 9032,7265 9032,7622 8951,7925 8772,8235 L 7092,7265 Z"/>
       </g>
      </g>
      <g class="com.sun.star.drawing.TextShape">
       <g id="id5">
        <text class="TextShape"><tspan class="TextParagraph" font-family="Nimbus Sans L, sans-serif" font-size="776px" font-weight="400"><tspan class="TextPosition" x="7179" y="7264"><tspan fill="rgb(192,192,192)" stroke="none">120°</tspan></tspan></tspan></text>
       </g>
      </g>
      <g class="com.sun.star.drawing.PolyLineShape">
       <g id="id6">
        <path fill="none" stroke="rgb(192,192,192)" stroke-width="71" d="M 7091,7266 L 7091,211 7091,7266 13201,10794 7091,7266 981,10794 7091,7266 Z"/>
       </g>
      </g>
      <g class="com.sun.star.drawing.EllipseShape">
       <g id="id7">
        <path fill="rgb(255,255,255)" stroke="none" d="M 7094,7444 C 7061,7444 7034,7437 7006,7420 6977,7404 6957,7384 6941,7356 6924,7327 6917,7300 6917,7267 6917,7234 6924,7207 6941,7179 6957,7150 6977,7130 7006,7114 7034,7097 7061,7090 7094,7090 7127,7090 7154,7097 7183,7114 7211,7130 7231,7150 7247,7179 7264,7207 7271,7234 7271,7267 7271,7300 7264,7327 7247,7356 7231,7384 7211,7404 7183,7420 7154,7437 7127,7444 7094,7444 L 7094,7444 Z"/>
        <path fill="none" stroke="rgb(192,192,192)" stroke-width="71" d="M 7094,7444 C 7061,7444 7034,7437 7006,7420 6977,7404 6957,7384 6941,7356 6924,7327 6917,7300 6917,7267 6917,7234 6924,7207 6941,7179 6957,7150 6977,7130 7006,7114 7034,7097 7061,7090 7094,7090 7127,7090 7154,7097 7183,7114 7211,7130 7231,7150 7247,7179 7264,7207 7271,7234 7271,7267 7271,7300 7264,7327 7247,7356 7231,7384 7211,7404 7183,7420 7154,7437 7127,7444 7094,7444 L 7094,7444 Z"/>
       </g>
      </g>
      <g class="com.sun.star.drawing.EllipseShape">
       <g id="id8">
        <path fill="rgb(255,255,255)" stroke="none" d="M 7092,211 L 8195,2121 C 7843,2324 7498,2416 7092,2416 6686,2416 6341,2324 5990,2121 L 7092,211 Z"/>
        <path fill="none" stroke="rgb(0,0,0)" stroke-width="71" d="M 7092,211 L 8195,2121 C 7843,2324 7498,2416 7092,2416 6686,2416 6341,2324 5990,2121 L 7092,211 Z"/>
       </g>
      </g>
      <g class="com.sun.star.drawing.TextShape">
       <g id="id9">
        <text class="TextShape"><tspan class="TextParagraph" font-family="Nimbus Sans L, sans-serif" font-size="776px" font-weight="400"><tspan class="TextPosition" x="6421" y="2123"><tspan fill="rgb(0,0,0)" stroke="none">60°</tspan></tspan></tspan></text>
       </g>
      </g>
      <g class="com.sun.star.drawing.PolyLineShape">
       <g id="id10">
        <path fill="none" stroke="rgb(0,0,0)" stroke-width="141" d="M 7093,213 L 13205,10794 984,10794 7093,211"/>
       </g>
      </g>
      <g class="com.sun.star.drawing.EllipseShape">
       <g id="id11">
        <path fill="rgb(255,255,255)" stroke="none" d="M 6934,135 C 6949,106 6968,84 6995,66 7022,48 7049,39 7082,37 7114,36 7143,41 7172,56 7201,70 7222,89 7240,117 7258,144 7267,171 7269,204 7271,236 7265,264 7251,293 7236,322 7217,344 7190,362 7163,380 7136,389 7103,391 7071,393 7042,387 7013,372 6984,358 6963,339 6945,312 6927,284 6918,257 6916,225 6914,192 6920,164 6934,135 L 6934,135 Z"/>
        <path fill="none" stroke="rgb(0,0,0)" stroke-width="71" d="M 6934,135 C 6949,106 6968,84 6995,66 7022,48 7049,39 7082,37 7114,36 7143,41 7172,56 7201,70 7222,89 7240,117 7258,144 7267,171 7269,204 7271,236 7265,264 7251,293 7236,322 7217,344 7190,362 7163,380 7136,389 7103,391 7071,393 7042,387 7013,372 6984,358 6963,339 6945,312 6927,284 6918,257 6916,225 6914,192 6920,164 6934,135 L 6934,135 Z"/>
       </g>
      </g>
      <g class="com.sun.star.drawing.EllipseShape">
       <g id="id12">
        <path fill="rgb(255,255,255)" stroke="none" d="M 13117,10645 C 13145,10629 13173,10621 13205,10621 13238,10621 13265,10629 13294,10645 13322,10661 13342,10682 13358,10710 13375,10738 13382,10766 13382,10798 13382,10831 13375,10859 13359,10887 13342,10915 13322,10935 13294,10952 13266,10968 13238,10975 13205,10975 13173,10975 13145,10968 13117,10952 13089,10935 13068,10915 13052,10887 13036,10859 13028,10831 13028,10798 13028,10766 13036,10738 13052,10710 13068,10682 13088,10661 13117,10645 L 13117,10645 Z"/>
        <path fill="none" stroke="rgb(0,0,0)" stroke-width="71" d="M 13117,10645 C 13145,10629 13173,10621 13205,10621 13238,10621 13265,10629 13294,10645 13322,10661 13342,10682 13358,10710 13375,10738 13382,10766 13382,10798 13382,10831 13375,10859 13359,10887 13342,10915 13322,10935 13294,10952 13266,10968 13238,10975 13205,10975 13173,10975 13145,10968 13117,10952 13089,10935 13068,10915 13052,10887 13036,10859 13028,10831 13028,10798 13028,10766 13036,10738 13052,10710 13068,10682 13088,10661 13117,10645 L 13117,10645 Z"/>
       </g>
      </g>
      <g class="com.sun.star.drawing.EllipseShape">
       <g id="id13">
        <path fill="rgb(255,255,255)" stroke="none" d="M 1162,10799 C 1162,10832 1155,10859 1138,10888 1122,10916 1102,10936 1074,10952 1045,10969 1018,10976 985,10976 952,10976 925,10969 897,10952 868,10936 848,10916 832,10888 815,10859 808,10832 808,10799 808,10766 815,10739 832,10711 848,10682 868,10662 896,10646 925,10629 952,10622 985,10622 1018,10622 1045,10629 1074,10646 1102,10662 1122,10682 1138,10711 1155,10739 1162,10766 1162,10799 L 1162,10799 Z"/>
        <path fill="none" stroke="rgb(0,0,0)" stroke-width="71" d="M 1162,10799 C 1162,10832 1155,10859 1138,10888 1122,10916 1102,10936 1074,10952 1045,10969 1018,10976 985,10976 952,10976 925,10969 897,10952 868,10936 848,10916 832,10888 815,10859 808,10832 808,10799 808,10766 815,10739 832,10711 848,10682 868,10662 896,10646 925,10629 952,10622 985,10622 1018,10622 1045,10629 1074,10646 1102,10662 1122,10682 1138,10711 1155,10739 1162,10766 1162,10799 L 1162,10799 Z"/>
       </g>
      </g>
     </g>
    </g>
   </g>
  </g>
 </g>
</svg>